<?xml version="1.0" standalone="no"?>
<!DOCTYPE svg PUBLIC "-//W3C//DTD SVG 20010904//EN"
 "http://www.w3.org/TR/2001/REC-SVG-20010904/DTD/svg10.dtd">
<svg version="1.0" xmlns="http://www.w3.org/2000/svg"
 width="720.000000pt" height="720.000000pt" viewBox="0 0 720.000000 720.000000"
 preserveAspectRatio="xMidYMid meet">

<g transform="translate(0.000000,720.000000) scale(0.100000,-0.100000)"
fill="#000000" stroke="none">
<path d="M93 7188 c13 -32 178 -420 205 -483 17 -38 47 -144 67 -235 20 -91
43 -189 51 -219 8 -29 13 -55 11 -57 -10 -10 -184 131 -291 235 -66 64 -117
109 -114 101 4 -8 34 -78 68 -155 34 -77 82 -184 105 -237 50 -112 122 -227
173 -272 19 -17 53 -48 75 -69 l40 -38 -6 -77 c-5 -66 -3 -83 13 -110 18 -29
18 -32 3 -40 -14 -9 -14 -13 6 -40 15 -22 20 -39 15 -56 -4 -19 -2 -28 11 -32
12 -5 15 -14 10 -31 -4 -16 -1 -25 10 -29 18 -7 20 -41 3 -47 -10 -3 -9 -9 3
-23 12 -14 16 -34 14 -74 -2 -44 4 -71 32 -140 19 -46 43 -96 54 -111 10 -15
19 -42 19 -61 0 -18 7 -60 14 -93 8 -33 24 -121 36 -195 12 -74 38 -182 56
-239 19 -57 34 -114 34 -126 0 -21 -6 -17 -53 28 -58 57 -151 111 -208 122
-126 23 -275 -159 -353 -432 -76 -262 -68 -550 25 -977 49 -224 100 -355 184
-471 19 -27 55 -80 80 -117 149 -225 363 -331 544 -269 l53 19 15 -37 c9 -20
19 -87 24 -151 4 -63 13 -133 19 -154 7 -22 10 -54 8 -72 -3 -24 0 -34 13 -37
25 -7 45 -200 25 -256 -14 -41 -10 -51 11 -30 6 6 16 9 21 5 17 -10 33 -98 26
-140 -6 -37 -5 -39 10 -27 13 11 17 10 25 -10 5 -13 16 -42 25 -63 9 -22 14
-46 11 -53 -3 -9 1 -13 11 -11 12 2 24 -21 49 -93 18 -53 38 -105 45 -115 8
-13 10 -14 7 -3 -3 9 -1 22 3 30 7 10 12 6 21 -16 9 -22 14 -144 17 -431 l4
-401 -43 -36 -43 -37 1877 0 1877 0 106 110 c59 60 123 131 143 157 20 26 44
57 55 68 58 63 190 252 226 325 46 93 111 200 122 200 4 0 8 -12 10 -28 3 -19
7 -10 15 33 11 60 44 157 63 185 9 13 11 13 19 0 8 -11 12 -8 20 15 6 17 17
41 25 55 8 14 21 59 31 102 13 58 21 77 36 81 15 4 19 14 19 44 0 21 9 64 20
96 11 31 20 71 20 90 0 44 48 318 59 331 4 6 8 29 9 51 1 52 31 197 43 209 5
6 17 6 31 -1 13 -5 34 -6 48 -2 l25 7 -25 1 c-14 1 -35 8 -48 16 -20 15 -21
22 -16 88 3 40 14 106 24 147 10 41 28 134 40 205 14 84 28 136 39 146 9 9 52
30 96 48 207 85 255 149 270 364 6 88 4 120 -11 175 -24 92 -65 152 -131 191
-29 18 -62 41 -72 52 -15 16 -20 17 -29 6 -22 -26 -43 -101 -49 -174 -3 -40
-9 -70 -13 -68 -4 2 -10 125 -14 273 l-7 269 32 88 c34 97 60 144 110 196 19
19 54 61 78 93 25 31 61 71 80 88 l36 30 -43 -22 c-24 -11 -77 -51 -118 -87
-42 -36 -78 -63 -81 -60 -3 3 -9 36 -13 74 -5 37 -16 99 -25 137 -9 38 -14 76
-13 85 5 21 38 -75 38 -110 0 -38 13 -43 40 -14 19 20 24 38 26 93 1 38 12
104 23 148 11 43 30 120 41 169 11 50 27 106 34 125 7 19 19 57 25 85 7 27 26
83 42 125 22 53 30 88 28 120 -2 31 4 58 19 87 27 51 30 82 7 63 -25 -21 -28
-5 -11 53 20 70 20 74 -4 52 -30 -27 -24 -4 10 41 16 21 30 42 30 47 0 4 11
25 25 47 27 42 31 55 15 45 -19 -12 -10 53 15 106 17 38 21 55 13 60 -9 6 -4
26 16 71 85 188 96 221 96 293 0 39 7 115 16 170 18 121 30 716 16 785 l-10
45 -1 -45 c-3 -84 -33 -271 -57 -352 -9 -29 -21 -70 -27 -92 -23 -79 -17 -15
12 130 17 82 35 183 42 224 6 41 13 90 16 107 l5 33 -3311 0 c-2641 0 -3311
-3 -3311 -13 -1 -6 0 -99 0 -204 0 -106 -3 -193 -7 -193 -8 0 -124 255 -168
368 -10 23 -22 42 -27 42 -6 0 -8 -6 -5 -12z m4333 -49 c3 -6 -5 -3 -20 6 -14
10 -26 19 -26 22 0 7 39 -17 46 -28z m-350 -11 l29 -33 -32 29 c-31 28 -38 36
-30 36 2 0 16 -15 33 -32z m2625 -75 c-11 -16 -34 -44 -51 -63 -17 -19 -10 -7
16 28 46 61 75 89 35 35z m114 -293 c-26 -63 -106 -193 -113 -185 -2 2 5 17
17 34 27 38 111 204 112 222 0 9 2 10 5 2 3 -6 -7 -39 -21 -73z m-1678 36 c-5
-12 3 -14 41 -10 46 4 47 4 27 -16 -11 -10 -38 -26 -60 -34 -72 -26 -9 -17 90
14 115 35 122 36 286 16 126 -15 162 -27 229 -79 l25 -20 -27 7 c-14 3 -34 8
-45 11 -10 4 2 -4 26 -16 25 -13 61 -45 85 -75 42 -55 127 -225 101 -204 -17
14 -17 13 6 -45 14 -34 19 -51 23 -80 2 -11 9 -40 16 -64 6 -24 13 -86 14
-137 2 -58 8 -99 16 -109 21 -25 2 -30 -20 -5 -11 13 -23 20 -27 16 -7 -7 2
-27 37 -83 17 -27 6 -41 -20 -25 -46 28 -40 -1 10 -49 22 -22 40 -41 40 -43 0
-3 -14 0 -32 5 -43 12 -47 4 -14 -30 23 -24 26 -33 17 -48 -7 -15 -6 -25 5
-41 14 -20 14 -22 0 -22 -24 0 -20 -10 25 -70 35 -46 38 -51 16 -37 -15 9 -30
17 -34 17 -4 0 -3 -4 3 -8 15 -10 147 -238 168 -291 29 -74 56 -203 56 -271 0
-36 7 -134 16 -219 8 -85 11 -157 7 -162 -4 -4 -51 0 -103 10 -92 16 -96 18
-122 56 -72 106 -336 350 -474 438 -76 48 -90 37 -22 -18 l33 -26 -50 25 c-55
27 -84 24 -37 -4 52 -32 46 -42 -8 -15 -33 17 -51 21 -48 13 5 -13 22 -26 122
-87 79 -49 62 -51 -21 -3 -56 33 -185 92 -200 92 -2 0 -1 -5 3 -11 4 -7 0 -9
-12 -6 -11 3 -30 8 -44 12 -24 6 -24 5 3 -10 15 -9 27 -18 27 -21 0 -6 -111 6
-122 13 -5 2 -8 0 -8 -5 0 -11 36 -26 99 -42 66 -17 45 -20 -34 -4 -87 17
-117 18 -95 4 11 -7 4 -10 -26 -10 -60 0 -134 -12 -129 -20 2 -4 -57 -7 -133
-8 -131 0 -230 -7 -239 -16 -2 -2 -19 0 -38 4 -25 6 -35 4 -39 -7 -4 -10 -11
-11 -22 -5 -25 14 -46 4 -74 -33 -14 -18 -27 -31 -29 -29 -3 2 6 15 18 28 12
13 18 26 13 30 -15 9 -100 -51 -122 -86 -25 -42 -25 -32 0 28 36 84 9 72 -37
-16 -7 -14 -13 -19 -13 -12 0 18 49 112 58 112 5 0 17 7 28 15 17 14 17 14
-11 3 -41 -16 -71 -44 -87 -81 l-13 -32 -5 35 c-5 38 -40 57 -40 23 -1 -26
-36 -88 -43 -76 -4 5 -3 33 2 62 4 28 4 54 0 57 -8 4 -14 -44 -10 -69 1 -4 -5
-14 -12 -22 -8 -7 -20 -48 -28 -89 -7 -42 -17 -76 -22 -76 -4 0 -6 4 -2 9 3 5
-11 27 -31 48 -42 44 -60 76 -73 129 -5 22 -23 71 -39 109 -16 39 -34 93 -41
121 -11 44 -28 81 -107 231 -10 18 -24 35 -31 37 -8 4 -11 1 -7 -5 3 -6 -4 -5
-17 3 -13 8 -28 14 -34 13 -24 -4 -44 -18 -39 -26 3 -5 -2 -6 -10 -3 -21 8
-20 20 -21 -361 0 -319 -1 -332 -22 -378 -57 -123 -127 -159 -184 -95 -26 31
-28 31 -35 13 -10 -27 -25 -40 -50 -47 -22 -6 -59 15 -51 29 2 4 1 17 -3 28
-4 12 -2 28 6 41 13 19 12 20 -15 16 -28 -4 -32 0 -61 64 -18 38 -33 89 -35
112 -4 49 -11 63 -21 38 -13 -35 -34 -15 -55 57 -21 68 -35 91 -49 82 -4 -2
-7 1 -7 8 -1 18 -93 177 -102 177 -5 0 -14 13 -21 29 -6 16 -19 37 -28 47 -23
26 -65 92 -85 134 -9 19 -37 57 -64 84 -26 28 -48 59 -49 70 -1 12 -9 38 -18
58 -9 21 -16 44 -16 52 0 8 -9 18 -20 21 -11 3 -20 12 -20 18 0 7 -7 3 -15 -7
-14 -19 -15 -19 -15 6 0 38 81 107 198 166 53 28 202 100 331 162 226 107 405
207 616 344 279 181 540 320 581 310 17 -4 24 -2 24 8 0 14 130 68 165 68 10
0 39 -8 64 -17 33 -13 46 -14 49 -5 2 7 8 10 12 7 5 -3 26 5 47 18 51 32 67
37 84 27 7 -5 16 -5 19 -1 3 5 25 12 48 16 42 7 43 6 33 -14 -10 -17 -9 -21 4
-21 8 0 21 11 27 25 12 28 28 33 28 10 0 -18 14 -19 43 -4 21 12 45 16 120 23
21 2 40 6 44 10 11 10 15 7 10 -8z m213 -1766 c13 -8 13 -10 -2 -10 -9 0 -20
5 -23 10 -8 13 5 13 25 0z m-870 -114 c0 -3 -4 -8 -10 -11 -5 -3 -10 -1 -10 4
0 6 5 11 10 11 6 0 10 -2 10 -4z m-104 -74 c-17 -16 -18 -16 -5 5 7 12 15 20
18 17 3 -2 -3 -12 -13 -22z m1218 -41 c74 -6 102 -12 111 -24 7 -10 15 -17 19
-17 4 0 23 -7 44 -17 20 -9 66 -28 102 -42 46 -19 69 -34 78 -53 7 -15 15 -85
19 -157 3 -72 10 -131 14 -131 4 0 13 -16 19 -35 14 -44 30 -54 30 -20 0 14
-4 24 -9 20 -6 -3 -12 9 -16 27 -19 114 -25 171 -25 234 0 70 -1 73 -37 104
-20 18 -50 38 -67 46 -17 7 -25 13 -18 14 42 1 132 -72 132 -108 0 -8 17 -31
38 -51 21 -20 41 -44 44 -53 5 -12 24 -17 86 -19 44 -2 83 -7 87 -10 3 -4 1
-26 -5 -50 -11 -44 -25 -136 -36 -239 -4 -34 0 -88 10 -140 23 -121 39 -463
33 -685 -6 -182 -22 -314 -66 -555 -39 -209 -91 -501 -147 -815 -67 -379 -105
-538 -169 -700 -87 -222 -208 -408 -431 -662 -187 -213 -260 -286 -138 -138
88 107 145 186 127 177 -24 -13 -56 -49 -135 -152 -67 -87 -175 -196 -185
-187 -3 3 0 29 6 57 19 90 11 97 -20 16 -28 -75 -105 -186 -138 -201 -15 -6
-17 -8 45 70 61 78 -6 20 -97 -83 -32 -36 -33 -34 -19 58 6 36 10 127 10 203
1 106 4 139 14 143 13 5 17 34 19 151 l2 52 32 -31 c39 -38 41 -34 9 22 -21
36 -22 47 -13 82 7 29 7 46 -1 59 -15 23 -16 42 -2 34 13 -8 13 1 -1 27 -6 11
-12 52 -13 92 -2 40 -7 79 -12 87 -6 10 0 9 19 -3 38 -26 41 -22 12 19 -14 21
-25 45 -25 54 0 9 -7 33 -15 52 -12 30 -13 35 -1 31 18 -7 18 39 -1 84 -8 19
-12 37 -9 40 3 3 6 1 6 -4 0 -6 7 -19 15 -30 13 -17 14 -13 9 46 -3 36 -15 96
-26 133 -11 38 -18 70 -16 73 3 2 17 -20 32 -50 23 -46 76 -111 76 -94 0 12
-81 146 -95 158 -8 7 -15 20 -15 29 1 12 8 8 29 -14 43 -46 71 -69 71 -58 0
19 -92 114 -106 109 -8 -3 -11 0 -8 8 3 8 -11 26 -35 42 -48 35 -58 54 -35 71
26 19 3 60 -62 111 -58 46 -70 43 -28 -7 14 -17 23 -31 21 -31 -3 0 8 -13 24
-29 29 -30 37 -51 19 -51 -5 0 -12 11 -16 25 -3 14 -10 25 -14 25 -4 0 -28 20
-52 45 -48 48 -65 57 -48 26 17 -33 12 -33 -36 1 -166 118 -215 140 -119 53
33 -30 55 -55 49 -55 -5 0 -19 8 -30 18 -10 10 -62 47 -114 82 -52 35 -111 76
-131 92 -20 15 -43 28 -50 28 -12 0 25 -37 82 -81 49 -37 32 -43 -19 -6 -63
45 -97 63 -87 47 5 -8 3 -11 -6 -8 -8 3 -13 10 -12 15 1 6 -9 8 -23 5 -19 -3
-22 -7 -13 -18 8 -10 8 -14 1 -14 -6 0 -34 22 -61 50 -30 30 -56 48 -64 44 -8
-3 -18 -1 -22 5 -4 7 3 11 17 11 19 0 17 3 -13 19 -67 36 -115 46 -162 32 -23
-7 -50 -17 -60 -23 -10 -5 -36 -18 -58 -30 -41 -21 -79 -61 -79 -84 0 -19 -15
-18 -31 2 -7 8 -21 13 -31 11 -30 -8 -20 11 20 37 20 13 46 33 58 44 11 10 49
39 84 62 57 40 69 44 130 46 37 1 73 4 79 8 6 4 48 7 94 7 45 0 100 4 121 10
53 14 146 108 146 148 0 8 -9 3 -24 -14 -22 -25 -24 -26 -30 -9 -3 11 -26 30
-51 43 -39 20 -60 24 -152 25 -83 1 -116 -3 -140 -16 -29 -15 -33 -15 -45 0
-11 13 -10 15 5 9 12 -5 16 -3 11 5 -5 7 -2 9 8 6 8 -4 15 0 15 7 0 11 -5 11
-27 0 -15 -8 -31 -11 -34 -7 -4 3 -4 -2 0 -11 3 -10 3 -17 -2 -16 -15 3 -74
-22 -74 -32 0 -15 -71 54 -87 85 -8 15 -12 38 -9 50 4 18 -7 27 -84 65 -49 24
-101 56 -114 70 -30 32 -86 168 -86 209 0 31 5 56 41 227 20 92 21 114 13 280
-13 261 -12 527 2 532 7 2 10 13 7 24 -13 49 86 108 183 109 153 0 251 -86
318 -280 9 -25 38 -79 65 -120 112 -174 133 -204 129 -195 -2 6 -18 40 -36 77
-18 37 -32 72 -32 78 0 5 -9 27 -20 47 -11 21 -20 44 -20 52 0 7 -13 37 -29
65 -16 28 -32 67 -35 86 -15 77 -30 136 -38 144 -4 6 -8 17 -8 25 0 12 2 13 8
3 6 -9 12 -6 20 12 7 17 17 23 30 20 15 -4 21 3 31 38 15 51 57 124 63 111 3
-4 8 -21 12 -36 4 -15 10 -25 15 -23 8 6 30 -37 35 -66 1 -8 12 -25 24 -38 12
-13 22 -27 22 -31 0 -4 12 -5 28 -3 16 3 36 -2 47 -11 11 -9 13 -13 5 -9 -13
7 -13 5 -2 -8 7 -9 12 -25 10 -35 -3 -19 2 -20 41 -8 16 5 21 4 16 -4 -5 -8 1
-10 19 -5 34 8 33 0 -9 -49 -19 -22 -35 -44 -35 -49 0 -4 51 -5 113 -2 103 5
110 4 93 -10 -11 -9 -26 -16 -33 -16 -19 0 -87 -36 -102 -53 -10 -13 -2 -20
50 -46 34 -17 65 -28 70 -25 5 3 9 1 9 -5 0 -5 8 -8 18 -6 9 1 23 -2 30 -8 6
-5 12 -7 12 -3 0 3 24 -4 53 -15 161 -64 265 -84 410 -76 123 6 165 23 54 21
-65 -1 -79 2 -139 34 -37 20 -64 40 -61 46 4 5 -1 7 -10 3 -9 -3 -16 -2 -14 3
1 5 -13 25 -31 44 -19 20 -32 43 -29 50 4 10 0 12 -14 9 -11 -3 -27 2 -37 10
-10 9 -29 20 -42 26 -24 9 -23 10 10 10 19 0 71 -8 115 -17 76 -17 81 -20 90
-50 10 -34 31 -46 22 -12 -3 10 1 24 9 31 11 9 14 7 14 -10 0 -11 5 -21 10
-21 6 0 10 9 10 19 0 11 6 22 13 24 6 3 -7 6 -30 6 -36 1 -190 42 -217 58 -4
3 -2 9 5 13 7 5 22 2 33 -5 67 -43 179 -52 287 -24 39 10 124 92 153 147 25
48 35 174 17 203 -14 23 -14 23 4 7 14 -13 18 -29 16 -63 -1 -26 2 -45 9 -45
5 0 9 -3 8 -7 -4 -15 39 -73 48 -65 4 4 3 0 -4 -9 -11 -14 -10 -17 5 -15 13 1
18 -6 17 -21 -1 -12 4 -21 10 -20 6 1 11 -7 11 -18 0 -16 -16 -25 -85 -47 -47
-15 -105 -33 -130 -40 -30 -8 -38 -13 -25 -15 11 -2 74 10 138 27 108 27 120
29 134 14 12 -11 18 -12 23 -4 4 6 11 12 16 12 5 -1 8 6 6 14 -2 8 2 14 8 14
5 0 10 -5 10 -10 0 -6 6 -5 14 2 8 7 12 16 9 21 -7 12 22 8 62 -9 20 -8 40
-13 43 -10 3 3 -1 6 -9 6 -23 0 12 20 36 20 11 0 28 6 37 14 16 12 16 15 -5
57 -12 25 -28 60 -36 78 -15 35 -54 66 -71 56 -8 -5 -6 -14 7 -28 17 -19 15
-19 -22 3 -22 13 -65 41 -95 61 -72 49 -133 75 -198 84 -35 4 -52 12 -52 21 0
8 5 14 10 14 6 0 10 7 10 16 0 13 3 14 14 5 8 -7 41 -11 77 -10 37 1 64 -2 66
-8 2 -6 12 -9 21 -6 11 2 30 -7 47 -24 16 -15 25 -22 20 -14 -11 18 100 -62
147 -107 20 -19 36 -38 34 -41 -2 -3 7 -7 20 -7 25 -2 25 1 -8 48 -11 16 -17
37 -14 53 3 14 1 23 -3 20 -5 -2 -15 10 -22 28 -15 37 -28 49 -47 42 -7 -2
-17 5 -23 18 -5 12 -24 31 -42 41 -92 53 -156 84 -187 91 -57 11 -71 16 -65
24 2 5 -8 7 -24 6 -32 -3 -53 7 -50 21 1 5 -3 22 -9 37 -7 16 -12 36 -13 45 0
11 -5 6 -13 -12 -13 -28 -13 -28 -19 -6 -4 17 -10 21 -24 16 -12 -5 -15 -4 -8
3 6 5 21 12 35 15 14 2 45 9 70 15 25 6 68 11 95 11 65 0 88 14 49 28 -24 9
-12 10 66 11 52 0 140 -4 194 -8z m-432 -138 c6 -7 5 -14 -3 -19 -7 -4 -9 -3
-5 4 3 6 2 13 -4 17 -5 3 -10 14 -9 23 0 14 2 14 6 2 3 -8 10 -20 15 -27z
m-4017 -101 c-6 -5 -29 -14 -53 -21 -55 -15 -80 -2 -26 15 46 14 92 18 79 6z
m5136 -3 c19 -6 41 -13 49 -15 27 -9 -11 -23 -49 -18 -68 8 -91 16 -91 30 0
17 43 19 91 3z m-5301 -9 c-8 -5 -22 -9 -30 -9 -10 0 -8 3 5 9 27 12 43 12 25
0z m4214 -59 c3 -5 -1 -11 -9 -15 -8 -3 -15 -17 -15 -32 0 -22 -3 -25 -22 -20
-13 3 -28 6 -34 6 -6 0 -14 14 -18 31 -5 26 -9 29 -28 24 -18 -5 -20 -4 -8 4
18 13 127 15 134 2z m-1957 -67 c14 -25 23 -56 23 -84 -1 -54 -8 -44 -44 58
-28 80 -17 93 21 26z m538 25 c22 -6 56 -26 75 -44 19 -18 53 -44 75 -59 34
-22 40 -24 48 -10 5 8 6 22 3 29 -3 8 -2 14 2 12 5 -1 23 15 41 36 34 38 46
43 71 27 12 -7 9 -13 -13 -34 -28 -26 -77 -118 -77 -145 0 -8 -17 2 -40 23
-22 19 -72 52 -112 72 -60 31 -86 38 -151 42 -93 6 -208 -11 -300 -45 -59 -21
-69 -22 -82 -10 -17 17 -12 23 50 57 93 52 306 77 410 49z m1300 -19 c3 -5 -1
-10 -9 -10 -9 0 -16 5 -16 10 0 6 4 10 9 10 6 0 13 -4 16 -10z m-1322 -75 c60
-18 127 -64 127 -88 0 -10 5 -15 10 -12 6 3 10 1 10 -4 0 -18 -24 -12 -60 14
-18 13 -48 29 -67 36 -18 6 -33 15 -33 20 0 6 -4 7 -10 4 -5 -3 -10 -1 -10 4
0 6 -9 11 -21 11 -11 0 -18 4 -14 9 3 6 -8 8 -27 5 -18 -3 -44 -1 -58 5 -41
16 96 13 153 -4z m-1304 -88 c12 -15 5 -27 -16 -27 -7 0 -13 9 -13 20 0 23 13
26 29 7z m1476 -46 c3 -5 1 -12 -4 -15 -5 -3 -11 1 -15 9 -6 16 9 21 19 6z
m-655 -24 c0 -23 -48 -165 -75 -222 -15 -31 -41 -72 -57 -91 -32 -37 -73 -47
-64 -16 17 63 18 64 41 60 20 -4 28 4 58 61 19 36 45 103 57 148 12 46 26 80
31 77 5 -3 9 -11 9 -17z m3073 3 c-3 -12 -8 -19 -11 -16 -5 6 5 36 12 36 2 0
2 -9 -1 -20z m-3172 -83 c-10 -9 -11 -8 -5 6 3 10 9 15 12 12 3 -3 0 -11 -7
-18z m-1848 -184 c9 -29 12 -53 7 -53 -11 0 -50 104 -50 133 1 21 1 21 14 -3
8 -14 21 -49 29 -77z m1132 67 c-3 -5 -12 -10 -18 -10 -7 0 -6 4 3 10 19 12
23 12 15 0z m-276 -20 c21 -8 63 -11 125 -8 52 2 92 0 89 -5 -2 -4 19 -4 49 0
29 4 78 8 108 8 l55 0 -3 -30 c-5 -45 -28 -64 -170 -142 -41 -22 -121 -42
-127 -32 -9 14 5 30 18 22 7 -3 3 3 -7 15 -11 12 -25 22 -32 22 -8 0 -11 6 -8
15 4 11 2 13 -9 9 -8 -3 -18 -1 -21 5 -4 6 -13 8 -20 5 -17 -6 -39 20 -42 52
-2 18 2 24 17 24 12 0 17 -4 13 -11 -4 -7 2 -6 17 2 22 11 21 13 -31 30 -30
10 -63 18 -72 18 -9 1 -19 5 -22 10 -8 12 35 7 73 -9z m886 -30 c3 -5 1 -10
-4 -10 -6 0 -11 5 -11 10 0 6 2 10 4 10 3 0 8 -4 11 -10z m-925 -4 c0 -11 -19
-15 -25 -6 -3 5 1 10 9 10 9 0 16 -2 16 -4z m279 -273 c-13 -21 -44 -67 -69
-103 -52 -73 -113 -175 -159 -267 -34 -68 -36 -69 -109 -53 -26 6 -69 15 -97
21 -73 16 -165 47 -192 64 -13 9 -28 13 -33 10 -11 -7 -84 34 -76 42 3 3 17
-4 32 -16 36 -28 52 -27 19 2 -28 23 -26 63 2 53 8 -3 12 -2 9 3 -7 11 19 34
63 56 29 14 33 15 28 2 -9 -24 4 -28 31 -11 17 11 22 12 16 3 -6 -11 -4 -11
10 0 9 8 32 15 49 16 23 1 31 6 29 18 -2 11 4 14 20 10 18 -4 20 -3 8 6 -13 9
-12 13 7 31 12 11 27 20 33 20 5 0 10 6 10 13 0 7 8 17 19 22 10 6 32 18 49
27 31 18 243 66 295 67 l29 1 -23 -37z m-546 -389 c34 -9 111 -26 171 -38 60
-12 111 -26 113 -32 7 -20 -86 -105 -142 -130 -73 -34 -147 -41 -216 -20 -31
8 -62 24 -70 33 -23 27 -23 83 1 145 20 54 38 70 68 62 7 -2 41 -11 75 -20z
m642 -14 c-11 -5 -29 -8 -40 -8 -16 0 -15 2 5 8 34 11 60 11 35 0z m-90 -20
c-16 -4 -52 -7 -80 -7 l-50 0 55 7 c30 4 66 7 80 7 22 1 21 0 -5 -7z m-202
-17 c-7 -2 -19 -2 -25 0 -7 3 -2 5 12 5 14 0 19 -2 13 -5z m50 0 c-7 -2 -19
-2 -25 0 -7 3 -2 5 12 5 14 0 19 -2 13 -5z m4062 -328 c-25 -85 -37 -89 -30
-10 4 39 12 88 18 110 l12 40 7 -45 c5 -31 3 -61 -7 -95z m-2468 -330 c4 -4 3
-5 -3 -2 -7 4 -15 -1 -18 -10 -6 -15 -9 -15 -16 -3 -5 8 -7 17 -4 21 5 9 31 6
41 -6z m-51 -34 c-12 -19 -24 -12 -19 10 4 13 9 17 15 11 6 -6 7 -15 4 -21z
m274 -563 c58 -13 121 -33 140 -44 61 -36 118 -55 123 -41 5 15 71 -34 94 -71
10 -15 22 -30 27 -33 10 -8 -1 -29 -15 -29 -6 0 -7 5 -3 11 4 7 0 9 -14 5 -14
-5 -25 -1 -35 14 -7 11 -17 17 -20 14 -3 -3 -33 10 -65 30 -93 56 -166 86
-218 90 -27 2 -86 9 -132 16 -88 13 -91 13 -222 -19 -110 -27 -209 -27 -294
-1 -36 12 -66 25 -66 30 0 5 16 13 35 19 28 7 48 4 107 -16 80 -28 92 -27 233
20 64 21 167 37 200 31 11 -2 67 -14 125 -26z m8 -328 c23 -6 61 -15 85 -20
23 -6 53 -12 67 -14 14 -3 71 -14 128 -26 99 -21 141 -28 171 -29 18 -1 191
-177 191 -196 0 -8 16 -39 35 -69 19 -30 43 -77 54 -106 20 -51 20 -52 0 -34
-18 16 -19 16 -19 -2 0 -10 12 -41 25 -69 13 -27 23 -51 21 -53 -2 -2 -19 20
-37 47 -18 28 -36 51 -41 51 -7 0 23 -88 39 -114 4 -5 10 -27 13 -48 6 -31 5
-38 -6 -34 -19 7 -17 -3 6 -41 14 -24 15 -31 5 -26 -19 7 -19 -8 0 -33 20 -27
19 -34 -7 -29 -22 5 -22 4 2 -18 14 -12 26 -33 26 -47 0 -14 4 -34 9 -45 4
-12 -10 -3 -35 23 -53 52 -74 57 -50 11 8 -15 8 -19 -2 -17 -8 2 -12 -6 -11
-19 3 -27 0 -28 -21 -7 -26 25 -18 0 12 -42 46 -64 46 -65 7 -48 -20 8 -45 12
-56 9 -20 -7 -26 -30 -9 -40 19 -12 11 -33 -10 -28 -16 4 -19 2 -14 -12 6 -14
3 -16 -14 -11 -18 6 -23 2 -30 -26 l-8 -32 -38 78 c-21 42 -40 76 -42 74 -2
-3 6 -29 17 -59 11 -30 22 -83 24 -119 l4 -65 -17 45 c-33 88 -48 93 -44 14 3
-40 1 -54 -7 -50 -6 4 -9 10 -7 14 2 4 -6 8 -19 8 -18 1 -22 -2 -18 -15 4 -12
1 -11 -11 4 -17 20 -17 19 -11 -8 4 -19 2 -26 -5 -22 -5 3 -10 13 -10 21 0 8
-4 14 -10 14 -5 0 -10 8 -10 18 -1 16 -1 16 -14 -1 -12 -15 -14 -16 -20 -2 -3
9 -18 15 -36 15 -28 0 -31 4 -46 59 -9 33 -28 72 -41 88 l-25 28 21 -36 c12
-21 21 -54  21 -77 0 -22 5 -42 12 -44 8 -3 8 -16 -2 -50 l-14 -47 -21 23 c-28
31 -60 95 -61 126 -3 46 -4 50 -12 50 -5 0 -5 -25 0 -55 4 -31 6 -66 4 -80 -3
-14 0 -27 5 -30 5 -4 8 -18 8 -33 -1 -21 -2 -23 -6 -7 -3 11 -10 23 -16 27 -5
3 -10 21 -9 39 0 21 -2 28 -7 20 -5 -8 -11 9 -16 45 -8 67 -26 118 -32 93 -2
-9 3 -36 11 -60 18 -53 6 -74 -14 -24 -17 44 -33 46 -26 3 8 -45 -2 -21 -55
127 -24 66 -45 112 -47 103 -2 -9 2 -27 9 -40 7 -13 14 -41 16 -63 2 -22 10
-70 18 -107 8 -37 15 -71 15 -75 -1 -13 -30 30 -30 43 0 7 -5 25 -12 41 -7 15
-13 33 -13 38 -3 20 -26 68 -30 63 -2 -2 -1 -28 4 -57 11 -73 -6 -53 -68 77
-51 108 -80 157 -87 149 -2 -2 2 -19 10 -38 24 -58 28 -79 17 -79 -6 0 -11 7
-11 15 0 25 -42 107 -49 96 -6 -10 -16 10 -38 76 -12 34 -7 73 8 73 5 0 9 4 9
10 0 5 -7 7 -15 4 -8 -4 -15 -1 -15 5 0 6 0 14 0 19 0 4 27 7 60 7 33 0 60 -3
60 -6 0 -3 6 -6 13 -6 6 0 17 -2 22 -3 24 -6 33 1 27 23 -5 21 -4 21 15 5 28
-26 35 -22 28 15 l-6 32 20 -25 c12 -14 21 -19 21 -11 0 8 8 4 21 -10 l20 -24
-4 70 c-3 39 -3 60 0 48 4 -22 23 -33 23 -13 0 5 7 7 16 3 14 -5 16 -1 12 25
-2 18 -1 32 4 32 4 0 8 -8 8 -17 0 -11 8 -3 18 17 10 22 25 35 37 36 48 1 106
44 105 78 0 6 -6 4 -13 -4 -31 -39 -102 -78 -95 -52 1 4 -2 33 -6 65 l-7 57
-45 0 c-24 0 -44 4 -44 9 0 5 -11 12 -25 15 -14 4 -23 11 -20 16 7 11 -13 24
-40 26 -11 1 -49 5 -85 9 -92 10 -221 11 -227 2 -3 -4 -11 -3 -18 3 -7 6 -17
10 -21 9 -5 -1 -25 1 -44 5 -19 4 -42 8 -50 9 -35 5 -80 31 -80 46 0 14 -2 14
-10 1 -8 -12 -11 -11 -16 8 -4 15 -9 19 -14 12 -4 -7 -23 5 -53 33 -25 25 -48
43 -50 40 -3 -2 -8 1 -13 8 -5 8 -3 10 6 4 10 -6 12 -4 7 8 -3 9 -2 16 3 14 5
-1 15 7 23 18 14 18 31 20 164 25 81 3 156 4 166 2 13 -3 17 -16 19 -56 l1
-51 4 45 c3 25 8 49 13 53 8 9 67 15 215 21 44 3 94 9 110 14 38 13 51 13 103
2z m-458 -690 c0 -5 -2 -10 -4 -10 -3 0 -8 5 -11 10 -3 6 -1 10 4 10 6 0 11
-4 11 -10z m-27 -6 c3 -3 -5 -18 -19 -32 -13 -15 -24 -30 -24 -33 0 -4 -11 -9
-25 -11 -20 -4 -23 -2 -15 11 11 21 60 71 70 71 4 0 9 -3 13 -6z m1318 -45
c-8 -22 -9 -23 -17 -5 -5 13 -3 21 4 24 7 2 13 11 13 20 1 14 2 15 6 1 2 -8 0
-26 -6 -40z m-1269 19 c-6 -6 -10 -30 -8 -52 2 -23 2 -32 -1 -21 -8 34 -23 42
-23 12 0 -15 -4 -27 -10 -27 -31 0 14 99 45 100 5 0 4 -5 -3 -12z m33 -45 c3
-15 17 -50 29 -78 13 -27 28 -63 35 -79 10 -24 14 -27 22 -15 6 9 7 4 3 -18
-4 -21 -1 -39 10 -54 9 -13 15 -33 15 -44 -1 -17 -2 -17 -6 -2 -2 9 -9 17 -14
17 -5 0 -10 8 -10 18 -1 9 -5 1 -9 -18 l-6 -35 -8 40 c-8 46 -35 161 -43 189
-4 13 -7 15 -13 6 -4 -7 -9 6 -13 32 -2 23 -8 52 -13 62 -5 13 -4 17 3 13 6
-4 14 -19 18 -34z m-255 -63 c-6 -11 -13 -20 -16 -20 -2 0 0 9 6 20 6 11 13
20 16 20 2 0 0 -9 -6 -20z m184 -5 c3 -8 1 -15 -4 -15 -6 0 -10 7 -10 15 0 8
2 15 4 15 2 0 6 -7 10 -15z m1280 -121 c3 -8 2 -12 -4 -9 -6 3 -10 10 -10 16
0 14 7 11 14 -7z m284 -609 c-29 -30 -55 -52 -57 -49 -6 5 92 104 103 104 3 0
-18 -25 -46 -55z"/>
<path d="M5360 5081 c0 -5 7 -12 16 -15 14 -5 15 -4 4 9 -14 17 -20 19 -20 6z"/>
<path d="M4500 4964 c0 -8 5 -12 10 -9 6 4 8 11 5 16 -9 14 -15 11 -15 -7z"/>
<path d="M5405 4780 c55 -12 287 -22 254 -11 -15 5 -87 11 -160 14 -88 4 -120
3 -94 -3z"/>
<path d="M5438 4738 c6 -6 18 -8 28 -6 14 3 12 5 -9 10 -19 3 -25 2 -19 -4z"/>
<path d="M5678 4713 c6 -2 18 -2 25 0 6 3 1 5 -13 5 -14 0 -19 -2 -12 -5z"/>
<path d="M5710 4661 c0 -6 6 -11 14 -11 7 0 29 -3 47 -6 24 -4 29 -2 19 4 -25
16 -80 25 -80 13z"/>
<path d="M5525 4331 c-3 -6 -1 -11 5 -11 6 0 8 -4 5 -10 -3 -6 1 -7 10 -3 9 3
13 9 8 12 -4 3 -11 10 -14 14 -4 5 -10 4 -14 -2z"/>
<path d="M5963 4305 c0 -22 2 -30 4 -17 2 12 2 30 0 40 -3 9 -5 -1 -4 -23z"/>
<path d="M5952 4235 c0 -16 2 -22 5 -12 2 9 2 23 0 30 -3 6 -5 -1 -5 -18z"/>
<path d="M5296 4187 c3 -10 9 -15 12 -12 3 3 0 11 -7 18 -10 9 -11 8 -5 -6z"/>
<path d="M5942 4180 c0 -14 2 -19 5 -12 2 6 2 18 0 25 -3 6 -5 1 -5 -13z"/>
<path d="M3994 4120 c9 -121 46 -229 46 -135 0 39 16 47 28 14 8 -20 9 -19 20
6 11 24 11 27 -3 21 -23 -9 -62 41 -71 89 -12 72 -25 75 -20 5z"/>
<path d="M5931 4134 c0 -11 3 -14 6 -6 3 7 2 16 -1 19 -3 4 -6 -2 -5 -13z"/>
<path d="M5991 4088 l-73 -41 6 34 c5 30 5 31 -4 10 -6 -14 -8 -31 -6 -38 3
-7 -7 -19 -22 -27 -15 -9 -21 -15 -14 -16 7 0 12 -14 13 -32 1 -32 1 -32 12 9
11 40 19 47 97 93 102 60 95 67 -9 8z"/>
<path d="M5366 4014 c-9 -24 -8 -26 13 -15 10 6 21 7 25 4 3 -3 6 -3 6 0 0 3
-9 11 -19 16 -15 8 -20 7 -25 -5z"/>
<path d="M5828 4003 c7 -3 16 -2 19 1 4 3 -2 6 -13 5 -11 0 -14 -3 -6 -6z"/>
<path d="M5290 3980 c14 -10 27 -16 30 -13 6 6 -30 33 -44 33 -6 0 0 -9 14
-20z"/>
<path d="M5778 3993 c6 -2 18 -2 25 0 6 3 1 5 -13 5 -14 0 -19 -2 -12 -5z"/>
<path d="M4135 3948 c-8 -25 -15 -33 -33 -32 -29 1 -23 -19 9 -26 26 -6 38
-38 19 -50 -7 -4 -24 -2 -38 6 -38 19 -40 8 -5 -27 28 -28 31 -29 46 -14 13
12 17 35 17 96 0 43 -1 79 -3 79 -2 0 -7 -15 -12 -32z"/>
<path d="M5070 3970 c-8 -5 -10 -10 -5 -10 6 0 17 5 25 10 8 5 11 10 5 10 -5
0 -17 -5 -25 -10z"/>
<path d="M5250 3960 c14 -10 27 -16 30 -13 6 6 -30 33 -44 33 -6 0 0 -9 14
-20z"/>
<path d="M5080 3946 c0 -2 8 -10 18 -17 15 -13 16 -12 3 4 -13 16 -21 21 -21
13z"/>
<path d="M5215 3930 c10 -11 20 -20 23 -20 3 0 -3 9 -13 20 -10 11 -20 20 -23
20 -3 0 3 -9 13 -20z"/>
<path d="M4226 3495 c65 -93 189 -227 251 -270 106 -74 288 -156 342 -154 9 0
-9 8 -39 18 -116 37 -322 155 -381 217 -19 20 -21 27 -9 34 11 7 11 13 3 32
-9 18 -12 19 -12 6 -2 -39 -28 -19 -135 102 -36 41 -41 45 -20 15z"/>
<path d="M5364 3104 c-18 -14 -18 -15 4 -4 12 6 22 13 22 15 0 8 -5 6 -26 -11z"/>
<path d="M5430 3071 c0 -5 5 -13 10 -16 6 -3 10 -2 10 4 0 5 -4 13 -10 16 -5
3 -10 2 -10 -4z"/>
<path d="M4318 2838 c9 -31 18 -55 21 -53 7 8 -9 72 -23 91 -12 15 -11 7 2
-38z"/>
<path d="M5530 2839 c0 -5 5 -7 10 -4 6 3 10 8 10 11 0 2 -4 4 -10 4 -5 0 -10
-5 -10 -11z"/>
<path d="M5890 2744 c0 -8 5 -12 10 -9 6 3 10 10 10 16 0 5 -4 9 -10 9 -5 0
-10 -7 -10 -16z"/>
<path d="M5935 2150 c-3 -5 -1 -10 4 -10 6 0 11 5 11 10 0 6 -2 10 -4 10 -3 0
-8 -4 -11 -10z"/>
<path d="M5360 1020 c0 -5 5 -10 11 -10 5 0 7 5 4 10 -3 6 -8 10 -11 10 -2 0
-4 -4 -4 -10z"/>
<path d="M3106 3912 c-3 -5 1 -9 9 -9 8 0 12 4 9 9 -3 4 -7 8 -9 8 -2 0 -6 -4
-9 -8z"/>
<path d="M2308 3943 c-14 -2 -29 -11 -32 -19 -6 -16 5 -19 20 -5 15 15 49 17
49 4 0 -20 20 -15 20 4 0 19 -14 23 -57 16z"/>
<path d="M2416 3940 c-19 -6 -19 -7 -1 -14 10 -3 22 -3 28 3 12 12 -4 20 -27
11z"/>
<path d="M3651 1454 c0 -11 3 -14 6 -6 3 7 2 16 -1 19 -3 4 -6 -2 -5 -13z"/>
<path d="M3780 878 c0 -22 21 -68 32 -68 11 0 11 1 -12 46 -10 21 -19 31 -20
22z"/>
<path d="M3880 860 c0 -5 5 -10 11 -10 5 0 7 5 4 10 -3 6 -8 10 -11 10 -2 0
-4 -4 -4 -10z"/>
<path d="M3880 825 c0 -5 5 -17 10 -25 5 -8 10 -10 10 -5 0 6 -5 17 -10 25 -5
8 -10 11 -10 5z"/>
<path d="M4070 756 c19 -19 37 -32 39 -30 6 6 -51 64 -63 64 -5 0 5 -15 24
-34z"/>
<path d="M3942 660 c0 -14 2 -19 5 -12 2 6 2 18 0 25 -3 6 -5 1 -5 -13z"/>
<path d="M4150 639 c7 -11 14 -19 16 -16 7 7 -7 37 -17 37 -6 0 -5 -9 1 -21z"/>
<path d="M4098 625 c2 -14 8 -23 12 -20 10 6 1 45 -10 45 -4 0 -5 -11 -2 -25z"/>
<path d="M4071 534 c0 -11 3 -14 6 -6 3 7 2 16 -1 19 -3 4 -6 -2 -5 -13z"/>
<path d="M4501 434 c0 -11 3 -14 6 -6 3 7 2 16 -1 19 -3 4 -6 -2 -5 -13z"/>
<path d="M6729 4113 c-35 -30 -75 -89 -138 -204 -93 -173 -110 -245 -26 -116
44 68 65 78 116 55 78 -34 168 -361 169 -609 0 -200 -58 -339 -202 -481 -48
-48 -88 -90 -88 -93 0 -15 32 -2 60 25 18 17 34 30 36 30 31 0 164 217 208
338 13 37 35 130 49 207 15 78 35 170 47 205 44 143 8 486 -64 597 -21 33 -87
73 -118 73 -9 0 -31 -12 -49 -27z m41 -331 c0 -7 -4 -10 -10 -7 -5 3 -10 16
-10 28 0 18 2 19 10 7 5 -8 10 -21 10 -28z"/>
<path d="M5800 40 l0 -40 102 0 c61 0 98 4 93 9 -16 15 -155 71 -176 71 -15 0
-19 -7 -19 -40z"/>
</g>
</svg>
