<?xml version="1.0" standalone="no"?>
<!DOCTYPE svg PUBLIC "-//W3C//DTD SVG 20010904//EN"
 "http://www.w3.org/TR/2001/REC-SVG-20010904/DTD/svg10.dtd">
<svg version="1.0" xmlns="http://www.w3.org/2000/svg"
 width="1080.000000pt" height="1080.000000pt" viewBox="0 0 1080.000000 1080.000000"
 preserveAspectRatio="xMidYMid meet">

<g transform="translate(0.000000,1080.000000) scale(0.100000,-0.100000)"
fill="#000000" stroke="none">
<path d="M6162 8578 c-44 -57 -100 -127 -124 -157 -24 -29 -59 -74 -78 -100
-19 -26 -61 -79 -92 -116 -61 -72 -68 -89 -42 -99 49 -19 79 3 154 112 l15 21
130 -34 c72 -19 140 -35 152 -35 51 0 69 -19 81 -83 22 -111 24 -116 42 -122
9 -3 25 -2 35 1 15 6 17 16 11 78 -4 39 -13 96 -21 126 -8 30 -15 66 -15 79 0
13 -7 53 -15 90 -8 36 -24 122 -36 191 -12 69 -24 128 -28 131 -3 4 -24 10
-47 14 l-41 6 -81 -103z m124 -75 c8 -37 19 -99 24 -138 6 -38 13 -85 16 -102
7 -40 4 -40 -91 -13 -38 11 -80 20 -91 20 -12 0 -38 7 -58 15 -40 17 -40 17
12 86 107 142 164 211 169 205 3 -3 12 -36 19 -73z"/>
<path d="M5013 8539 c-39 -8 -58 -22 -94 -72 l-27 -38 -7 31 c-8 36 -24 45
-61 36 -29 -8 -29 -21 -4 -116 26 -93 40 -148 66 -255 14 -60 29 -113 33 -117
3 -4 20 -4 36 0 37 10 43 43 21 110 -26 83 -46 171 -46 207 0 58 33 110 85
135 33 16 45 28 45 43 0 35 -12 44 -47 36z"/>
<path d="M4439 8356 c-79 -28 -123 -67 -162 -143 -21 -40 -22 -138 -2 -177 8
-15 15 -34 15 -41 0 -8 22 -36 49 -64 57 -58 106 -76 196 -68 104 8 217 84
231 154 6 29 4 33 -22 39 -21 5 -31 3 -38 -11 -39 -65 -123 -115 -193 -115
-43 0 -133 56 -133 82 0 8 145 80 297 148 60 27 68 41 49 78 -52 99 -186 154
-287 118z m134 -75 c39 -17 67 -44 67 -65 0 -15 -271 -138 -289 -131 -20 8
-10 109 16 143 23 32 97 71 135 71 14 1 47 -8 71 -18z"/>
<path d="M6707 8342 c-10 -10 -17 -21 -17 -25 0 -3 -38 -75 -85 -158 -47 -84
-85 -154 -85 -156 0 -2 -30 -56 -66 -119 -63 -110 -65 -116 -48 -129 21 -16
54 -29 58 -23 2 1 20 35 41 73 71 130 76 137 91 124 8 -6 14 -19 14 -28 0 -21
74 -97 115 -118 16 -9 57 -18 91 -21 51 -4 71 0 116 20 92 42 153 141 152 243
-1 75 -27 128 -90 184 -54 48 -107 65 -181 59 -29 -3 -53 -3 -53 -2 0 2 5 15
12 29 11 24 9 29 -12 46 -31 23 -33 23 -53 1z m207 -165 c63 -36 81 -68 81
-146 0 -79 -23 -123 -89 -165 -59 -38 -92 -41 -152 -12 -73 35 -104 80 -104
151 0 68 25 120 77 163 32 27 46 31 93 32 39 0 66 -7 94 -23z"/>
<path d="M5465 8186 c-25 -25 -25 -44 -2 -73 5 -7 27 -13 48 -13 33 0 41 4 49
26 14 35 13 41 -10 64 -27 27 -56 25 -85 -4z"/>
<path d="M3964 8061 c-84 -21 -184 -127 -184 -194 0 -34 -15 -34 -36 -2 l-16
24 -28 -21 c-19 -13 -26 -26 -22 -37 3 -9 44 -65 91 -124 47 -60 97 -123 111
-140 13 -18 47 -59 75 -92 28 -33 66 -81 84 -107 42 -58 54 -63 87 -34 31 26
29 30 -29 97 -21 24 -51 62 -68 84 l-31 40 54 6 c131 15 228 118 228 243 0 90
-64 197 -140 236 -44 22 -130 33 -176 21z m106 -86 c77 -27 123 -93 123 -174
0 -116 -78 -182 -204 -173 -37 3 -125 84 -139 129 -28 83 13 177 94 214 50 23
71 23 126 4z"/>
<path d="M7239 7923 c-41 -43 -125 -132 -185 -197 -60 -66 -130 -142 -157
-169 -43 -46 -46 -52 -33 -71 26 -41 48 -31 136 61 l85 88 5 -45 c7 -51 21
-80 65 -128 62 -68 135 -91 233 -72 63 12 109 44 159 113 34 46 38 59 41 122
3 61 0 79 -21 121 -14 27 -38 61 -54 76 -31 29 -120 68 -158 68 -24 0 -24 0
-7 30 17 29 16 30 -8 55 l-25 25 -76 -77z m167 -117 c132 -62 135 -239 4 -321
-124 -78 -284 39 -256 188 12 66 111 153 176 156 14 0 48 -10 76 -23z"/>
<path d="M3502 7601 c-102 -35 -192 -157 -192 -259 0 -52 51 -154 92 -185 125
-96 250 -87 352 24 104 113 104 250 0 352 -37 37 -65 54 -110 68 -72 23 -76
23 -142 0z m163 -101 c67 -46 88 -88 83 -166 -4 -60 -7 -67 -46 -107 l-42 -42
-79 0 c-75 0 -79 1 -123 37 -37 30 -48 47 -58 87 -15 63 0 124 43 170 40 42
59 50 125 50 44 1 61 -5 97 -29z"/>
<path d="M8070 7304 c-14 -8 -74 -37 -135 -65 -60 -27 -123 -56 -140 -64 -225
-105 -265 -126 -265 -139 0 -7 14 -41 30 -75 17 -33 35 -71 40 -83 6 -13 14
-30 19 -38 5 -8 18 -36 30 -61 28 -62 91 -131 149 -165 42 -25 57 -28 143 -29
86 0 101 3 152 29 68 34 152 121 168 175 6 21 9 80 7 137 -4 95 -6 103 -55
204 -28 58 -59 124 -69 148 -19 45 -32 50 -74 26z m40 -134 c18 -34 40 -81 74
-164 73 -176 -98 -374 -291 -335 -89 18 -153 79 -209 199 -32 68 -54 120 -54
126 0 3 39 23 88 46 48 22 124 58 170 79 46 21 87 39 91 39 4 0 12 5 19 12 13
13 72 36 85 34 5 -1 17 -17 27 -36z"/>
<path d="M2941 7204 c-8 -19 -8 -30 -1 -39 6 -7 74 -45 153 -85 78 -40 162
-83 187 -97 197 -107 259 -136 273 -124 18 14 27 45 18 58 -7 11 -95 59 -291
161 -74 38 -170 88 -212 111 -90 48 -110 51 -127 15z"/>
<path d="M3098 6851 c-50 -10 -100 -51 -133 -107 -24 -41 -28 -59 -28 -129 -1
-72 2 -87 27 -129 34 -59 92 -97 175 -115 51 -11 70 -11 104 -1 92 27 136 64
173 145 18 39 24 67 24 127 0 89 -5 108 -30 108 -42 0 -48 -9 -38 -58 14 -77
-12 -150 -74 -208 -34 -33 -101 -52 -125 -36 -9 6 3 55 49 196 38 119 57 191
51 197 -13 13 -129 20 -175 10z m97 -71 c7 -12 -80 -288 -96 -304 -5 -6 -26 9
-54 37 -41 44 -45 51 -45 99 0 69 35 128 92 157 46 23 93 27 103 11z"/>
<path d="M7978 6484 c-70 -22 -139 -101 -156 -180 -11 -49 -11 -69 1 -119 17
-75 41 -123 75 -153 l26 -23 20 21 c19 18 19 22 6 43 -65 100 -77 176 -39 255
24 49 80 85 101 64 6 -6 17 -51 23 -99 7 -48 18 -117 25 -153 6 -36 14 -80 16
-97 4 -29 9 -33 35 -33 38 0 116 40 151 77 74 80 78 215 8 313 -34 49 -58 67
-112 84 -56 19 -117 19 -180 0z m178 -80 c75 -36 109 -119 84 -209 -9 -32 -22
-51 -51 -71 -62 -43 -69 -34 -89 126 -6 41 -15 88 -20 104 -23 68 3 85 76 50z"/>
<path d="M2846 6353 c-3 -4 -6 -21 -6 -38 0 -28 6 -35 52 -61 29 -16 66 -37
83 -46 16 -9 37 -20 45 -24 8 -4 57 -32 109 -62 86 -50 93 -56 76 -68 -11 -8
-27 -14 -37 -14 -10 0 -35 -6 -55 -13 -21 -8 -69 -23 -108 -35 -38 -12 -100
-31 -137 -43 l-68 -22 0 -38 c0 -22 4 -39 10 -39 5 0 69 20 142 43 73 24 179
59 235 76 56 18 107 39 113 46 6 7 13 29 17 48 l5 35 -95 56 c-53 31 -98 56
-101 56 -3 0 -53 28 -113 63 -123 71 -159 88 -167 80z"/>
<path d="M8335 5949 c-11 -4 -63 -24 -115 -44 -52 -20 -111 -43 -130 -50 -19
-8 -72 -28 -117 -45 -106 -41 -113 -47 -116 -95 l-2 -40 205 -102 c113 -57
209 -103 214 -103 5 0 17 -7 27 -16 24 -22 39 -10 39 31 0 31 -4 36 -47 55
-27 11 -59 27 -73 34 -14 8 -61 31 -105 53 -118 57 -157 78 -158 88 -1 5 21
17 48 27 28 10 86 31 130 47 135 49 218 81 222 85 3 2 3 22 1 44 -3 35 -5 38
-23 31z"/>
<path d="M3009 5770 c-52 -6 -89 -27 -135 -78 -75 -82 -73 -234 4 -318 62 -69
82 -78 185 -78 69 0 101 5 130 18 57 28 103 88 123 162 16 61 16 68 -1 139
-13 58 -26 85 -54 116 l-36 41 -24 -25 -23 -26 33 -41 c32 -40 34 -46 34 -124
0 -69 -3 -86 -24 -115 -25 -35 -88 -68 -101 -54 -5 4 -13 62 -19 128 -6 66
-15 136 -21 155 -5 19 -10 49 -10 67 0 39 -3 41 -61 33z m19 -107 c6 -16 13
-77 16 -138 3 -60 8 -120 12 -132 6 -20 3 -23 -22 -23 -38 1 -87 28 -116 65
-19 25 -23 41 -23 103 0 73 0 73 42 113 50 46 76 50 91 12z"/>
<path d="M7929 5404 c-91 -28 -158 -125 -166 -240 -9 -117 21 -170 77 -134 12
8 13 13 3 30 -7 11 -13 44 -13 73 0 100 74 195 155 200 35 2 40 -1 43 -22 2
-13 -1 -33 -7 -45 -6 -12 -15 -39 -20 -61 -6 -22 -23 -89 -40 -150 -16 -60
-27 -113 -25 -117 3 -4 43 -8 90 -8 96 0 143 18 187 69 65 78 77 220 25 299
-37 56 -85 90 -152 107 -68 18 -96 18 -157 -1z m208 -109 c65 -45 84 -155 39
-222 -13 -19 -39 -44 -57 -55 -31 -19 -92 -28 -104 -16 -6 6 9 78 30 143 8 22
16 56 20 75 9 52 26 90 39 90 6 0 21 -7 33 -15z"/>
<path d="M3070 5193 c-88 -30 -166 -90 -208 -161 -25 -43 -27 -55 -27 -152 0
-77 5 -117 17 -145 9 -22 29 -71 43 -110 15 -38 31 -74 36 -79 5 -6 9 -17 9
-26 0 -9 6 -24 13 -34 13 -17 17 -17 83 9 38 15 88 36 111 46 23 11 45 19 48
19 4 0 21 6 38 14 18 8 64 26 102 41 39 15 75 30 80 34 6 4 43 18 83 31 39 13
72 30 72 37 0 7 -6 27 -14 45 -8 18 -22 53 -32 78 -66 168 -90 213 -140 265
-67 68 -131 95 -224 94 -41 0 -82 -3 -90 -6z m155 -84 c92 -25 156 -99 203
-234 13 -38 28 -74 33 -79 20 -22 4 -34 -88 -70 -54 -21 -116 -46 -138 -55
-22 -10 -60 -25 -85 -35 -25 -10 -58 -24 -75 -32 -51 -24 -77 -22 -91 6 -39
74 -84 214 -84 257 1 156 172 283 325 242z"/>
<path d="M7651 4881 l-19 -37 51 -24 c29 -13 99 -45 157 -70 58 -26 140 -63
183 -84 42 -20 79 -36 82 -36 2 0 39 -16 81 -37 l77 -36 19 23 c32 40 25 50
-62 89 -42 18 -89 40 -295 136 -44 21 -119 55 -168 76 l-87 38 -19 -38z"/>
<path d="M7535 4628 c-33 -23 -61 -52 -85 -93 -31 -53 -35 -67 -35 -130 0 -96
31 -155 111 -210 51 -34 67 -40 124 -43 113 -7 190 38 246 143 56 105 37 224
-48 301 -56 51 -95 64 -185 64 -71 0 -83 -3 -128 -32z m198 -57 c55 -25 91
-65 109 -121 13 -40 13 -50 -1 -91 -22 -63 -51 -95 -106 -119 -46 -20 -50 -20
-99 -4 -100 33 -146 90 -146 179 0 58 27 105 83 146 48 35 99 38 160 10z"/>
<path d="M7115 4396 l-28 -24 74 -82 c93 -102 98 -110 65 -110 -14 0 -45 -8
-68 -17 -186 -72 -227 -292 -80 -425 60 -54 79 -61 168 -61 76 0 87 3 134 33
59 38 110 116 110 168 0 35 10 41 30 16 21 -24 64 -14 68 16 2 19 -20 50 -95
136 -151 171 -337 374 -344 374 -3 0 -19 -11 -34 -24z m186 -295 c107 -48 158
-162 110 -251 -10 -19 -37 -50 -60 -67 -80 -62 -185 -36 -248 59 -23 33 -28
53 -28 99 1 71 31 120 95 154 55 30 75 30 131 6z"/>
<path d="M3665 4357 c-65 -20 -111 -54 -151 -113 -37 -53 -39 -60 -38 -133 0
-58 5 -86 22 -118 28 -54 95 -106 157 -122 27 -6 51 -14 54 -17 2 -2 -33 -38
-78 -80 -103 -97 -108 -105 -77 -141 l24 -28 64 60 c34 33 106 101 158 151
111 107 202 191 248 229 39 32 41 57 6 80 -25 16 -27 16 -49 -5 l-22 -21 -6
46 c-9 61 -31 102 -83 152 -60 57 -155 82 -229 60z m165 -101 c81 -53 105
-164 52 -241 -31 -44 -112 -94 -154 -95 -34 0 -108 32 -130 57 -10 10 -27 40
-38 65 l-21 47 21 58 c45 128 166 178 270 109z"/>
<path d="M4133 3972 c-6 -4 -9 -19 -6 -35 4 -22 11 -27 33 -27 82 0 172 -59
207 -137 25 -55 25 -82 1 -116 -12 -16 -16 -15 -63 16 -142 97 -272 177 -288
177 -10 0 -22 -12 -27 -27 -6 -16 -16 -38 -22 -51 -7 -13 -12 -46 -12 -75 -2
-132 115 -247 252 -247 36 0 66 6 78 15 10 8 26 15 34 15 20 0 93 75 116 120
13 25 19 57 19 110 0 65 -4 81 -29 124 -33 55 -94 103 -164 128 -49 18 -109
23 -129 10z m44 -285 c61 -39 119 -77 129 -83 11 -6 15 -17 11 -27 -8 -22 -79
-57 -114 -57 -29 0 -95 28 -125 53 -24 19 -48 79 -48 117 0 32 15 70 28 70 4
0 57 -33 119 -73z"/>
<path d="M6688 3840 c-78 -23 -178 -121 -178 -174 0 -24 51 -34 64 -11 41 70
126 125 191 125 67 0 155 -63 122 -87 -6 -5 -32 -20 -57 -32 -25 -13 -68 -36
-97 -52 -28 -16 -71 -39 -95 -52 -62 -33 -88 -51 -88 -59 0 -4 12 -24 26 -45
43 -63 134 -114 204 -113 70 2 169 62 212 129 24 39 28 55 28 121 0 57 -5 85
-21 115 -50 95 -128 146 -225 144 -32 0 -71 -4 -86 -9z m259 -255 c2 -41 -2
-57 -25 -90 -31 -45 -100 -84 -149 -85 -34 0 -118 56 -118 79 0 7 52 39 115
72 63 33 119 65 125 70 5 5 19 8 30 7 17 -3 20 -12 22 -53z"/>
<path d="MCirText4667 3583 c-36 -54 -104 -159 -152 -233 -48 -74 -100 -153 -116
-176 -40 -58 -40 -67 3 -74 36 -7 38 -5 76 49 22 31 41 61 43 66 8 19 219 334
228 339 5 4 12 -45 16 -112 4 -64 11 -139 16 -166 5 -27 9 -81 9 -121 0 -107
10 -164 29 -169 9 -2 26 -7 38 -11 20 -6 62 50 208 277 53 82 129 188 132 184
8 -8 22 -161 33 -361 5 -104 13 -192 18 -196 4 -3 22 -9 40 -13 23 -4 34 -2
38 9 3 7 1 62 -5 122 -6 59 -16 198 -21 308 -6 110 -13 209 -15 221 -5 23 -43
44 -79 44 -17 0 -33 -17 -66 -67 -24 -38 -74 -114 -112 -170 -37 -56 -68 -105
-68 -108 0 -3 -5 -11 -10 -18 -6 -7 -25 -32 -43 -56 l-32 -45 -7 30 c-3 16
-12 117 -19 224 -21 342 -15 320 -81 320 -35 0 -39 -4 -101 -97z"/>
<path d="M6302 3670 c-21 -9 -21 -11 -8 -47 17 -47 52 -163 68 -225 20 -79 -3
-126 -95 -190 -35 -25 -26 -68 14 -68 30 0 99 52 99 75 0 7 7 18 15 25 12 10
16 8 24 -13 12 -31 34 -40 66 -25 29 13 30 16 11 60 -8 18 -24 67 -36 108 -38
129 -53 174 -66 210 -7 19 -16 50 -19 68 -7 34 -26 40 -73 22z"/>
<path d="M5746 3538 c-43 -60 10 -122 75 -88 13 7 19 21 19 44 0 59 -63 89
-94 44z"/>
</g>
</svg>
